<svg id="SvgjsSvg1128" width="1116" height="455.984375" xmlns="http://www.w3.org/2000/svg" version="1.1" xmlns:xlink="http://www.w3.org/1999/xlink" xmlns:svgjs="http://svgjs.com/svgjs"><defs id="SvgjsDefs1129"><marker id="SvgjsMarker1212" markerWidth="14" markerHeight="10" refX="10" refY="5" viewBox="0 0 14 10" orient="auto" markerUnits="userSpaceOnUse" stroke-dasharray="0,0"><path id="SvgjsPath1213" d="M0,0 L14,5 L0,10 L0,0" fill="#81c2bb" stroke="#81c2bb" stroke-width="1"></path></marker><marker id="SvgjsMarker1216" markerWidth="14" markerHeight="10" refX="10" refY="5" viewBox="0 0 14 10" orient="auto" markerUnits="userSpaceOnUse" stroke-dasharray="0,0"><path id="SvgjsPath1217" d="M0,0 L14,5 L0,10 L0,0" fill="#81c2bb" stroke="#81c2bb" stroke-width="1"></path></marker><marker id="SvgjsMarker1220" markerWidth="14" markerHeight="10" refX="10" refY="5" viewBox="0 0 14 10" orient="auto" markerUnits="userSpaceOnUse" stroke-dasharray="0,0"><path id="SvgjsPath1221" d="M0,0 L14,5 L0,10 L0,0" fill="#81c2bb" stroke="#81c2bb" stroke-width="1"></path></marker><marker id="SvgjsMarker1224" markerWidth="14" markerHeight="10" refX="10" refY="5" viewBox="0 0 14 10" orient="auto" markerUnits="userSpaceOnUse" stroke-dasharray="0,0"><path id="SvgjsPath1225" d="M0,0 L14,5 L0,10 L0,0" fill="#e74f4c" stroke="#e74f4c" stroke-width="1"></path></marker><marker id="SvgjsMarker1228" markerWidth="14" markerHeight="10" refX="10" refY="5" viewBox="0 0 14 10" orient="auto" markerUnits="userSpaceOnUse" stroke-dasharray="0,0"><path id="SvgjsPath1229" d="M0,0 L14,5 L0,10 L0,0" fill="#e74f4c" stroke="#e74f4c" stroke-width="1"></path></marker><marker id="SvgjsMarker1232" markerWidth="14" markerHeight="10" refX="10" refY="5" viewBox="0 0 14 10" orient="auto" markerUnits="userSpaceOnUse" stroke-dasharray="0,0"><path id="SvgjsPath1233" d="M0,0 L14,5 L0,10 L0,0" fill="#e74f4c" stroke="#e74f4c" stroke-width="1"></path></marker><marker id="SvgjsMarker1236" markerWidth="14" markerHeight="10" refX="10" refY="5" viewBox="0 0 14 10" orient="auto" markerUnits="userSpaceOnUse" stroke-dasharray="0,0"><path id="SvgjsPath1237" d="M0,0 L14,5 L0,10 L0,0" fill="#e74f4c" stroke="#e74f4c" stroke-width="1"></path></marker><marker id="SvgjsMarker1240" markerWidth="14" markerHeight="10" refX="10" refY="5" viewBox="0 0 14 10" orient="auto" markerUnits="userSpaceOnUse" stroke-dasharray="0,0"><path id="SvgjsPath1241" d="M0,0 L14,5 L0,10 L0,0" fill="#5b79e8" stroke="#5b79e8" stroke-width="1"></path></marker><marker id="SvgjsMarker1244" markerWidth="14" markerHeight="10" refX="10" refY="5" viewBox="0 0 14 10" orient="auto" markerUnits="userSpaceOnUse" stroke-dasharray="0,0"><path id="SvgjsPath1245" d="M0,0 L14,5 L0,10 L0,0" fill="#5b79e8" stroke="#5b79e8" stroke-width="1"></path></marker><marker id="SvgjsMarker1248" markerWidth="14" markerHeight="10" refX="10" refY="5" viewBox="0 0 14 10" orient="auto" markerUnits="userSpaceOnUse" stroke-dasharray="0,0"><path id="SvgjsPath1249" d="M0,0 L14,5 L0,10 L0,0" fill="#5b79e8" stroke="#5b79e8" stroke-width="1"></path></marker></defs><rect id="svgbackgroundid" width="1116" height="455.984375" fill="#ffffff"></rect><g id="SvgjsG1131" transform="translate(194.921875,25)"><path id="SvgjsPath1132" d="M0 0L168 0L168 40 L0 40Z" stroke="rgba(102, 102, 102,1)" stroke-width="2" fill-opacity="1" fill="#65b584"></path><path id="SvgjsPath1133" d="M0 40L168 40L168 80 L0 80Z" stroke="rgba(102, 102, 102,1)" stroke-width="2" fill-opacity="1" fill="#65b584"></path><path id="SvgjsPath1134" d="M0 80L168 80L168 120 L0 120Z" stroke="rgba(102, 102, 102,1)" stroke-width="2" fill-opacity="1" fill="#65b584"></path><path id="SvgjsPath1135" d="M0 120L168 120L168 160 L0 160Z" stroke="rgba(102, 102, 102,1)" stroke-width="2" fill-opacity="1" fill="#65b584"></path><g id="SvgjsG1136"><text id="SvgjsText1137" font-family="微软雅黑" text-anchor="middle" font-size="16px" width="168px" fill="#f4fff9" font-weight="400" align="middle" lineHeight="125%" anchor="middle" family="微软雅黑" size="16px" weight="400" font-style="" opacity="1" y="6" transform="rotate(0)"><tspan id="SvgjsTspan1138" dy="20" x="84"><tspan id="SvgjsTspan1139" style="text-decoration:;">preHandle</tspan></tspan></text></g><g id="SvgjsG1140"><text id="SvgjsText1141" font-family="微软雅黑" text-anchor="middle" font-size="16px" width="168px" fill="#f4fff9" font-weight="400" align="middle" lineHeight="125%" anchor="middle" family="微软雅黑" size="16px" weight="400" font-style="" opacity="1" y="46" transform="rotate(0)"><tspan id="SvgjsTspan1142" dy="20" x="84"><tspan id="SvgjsTspan1143" style="text-decoration:;">拦截器1</tspan></tspan></text></g><g id="SvgjsG1144"><text id="SvgjsText1145" font-family="微软雅黑" text-anchor="middle" font-size="16px" width="168px" fill="#f4fff9" font-weight="400" align="middle" lineHeight="125%" anchor="middle" family="微软雅黑" size="16px" weight="400" font-style="" opacity="1" y="86" transform="rotate(0)"><tspan id="SvgjsTspan1146" dy="20" x="84"><tspan id="SvgjsTspan1147" style="text-decoration:;">postHandle</tspan></tspan></text></g><g id="SvgjsG1148"><text id="SvgjsText1149" font-family="微软雅黑" text-anchor="middle" font-size="16px" width="168px" fill="#f4fff9" font-weight="400" align="middle" lineHeight="125%" anchor="middle" family="微软雅黑" size="16px" weight="400" font-style="" opacity="1" y="126" transform="rotate(0)"><tspan id="SvgjsTspan1150" dy="20" x="84"><tspan id="SvgjsTspan1151" style="text-decoration:;">afterCompletion</tspan></tspan></text></g></g><g id="SvgjsG1152" transform="translate(413.921875,25)"><path id="SvgjsPath1153" d="M0 0L168 0L168 40 L0 40Z" stroke="rgba(102, 102, 102,1)" stroke-width="2" fill-opacity="1" fill="#65b584"></path><path id="SvgjsPath1154" d="M0 40L168 40L168 80 L0 80Z" stroke="rgba(102, 102, 102,1)" stroke-width="2" fill-opacity="1" fill="#65b584"></path><path id="SvgjsPath1155" d="M0 80L168 80L168 120 L0 120Z" stroke="rgba(102, 102, 102,1)" stroke-width="2" fill-opacity="1" fill="#65b584"></path><path id="SvgjsPath1156" d="M0 120L168 120L168 160 L0 160Z" stroke="rgba(102, 102, 102,1)" stroke-width="2" fill-opacity="1" fill="#65b584"></path><g id="SvgjsG1157"><text id="SvgjsText1158" font-family="微软雅黑" text-anchor="middle" font-size="16px" width="168px" fill="#f4fff9" font-weight="400" align="middle" lineHeight="125%" anchor="middle" family="微软雅黑" size="16px" weight="400" font-style="" opacity="1" y="6" transform="rotate(0)"><tspan id="SvgjsTspan1159" dy="20" x="84"><tspan id="SvgjsTspan1160" style="text-decoration:;">preHandle</tspan></tspan></text></g><g id="SvgjsG1161"><text id="SvgjsText1162" font-family="微软雅黑" text-anchor="middle" font-size="16px" width="168px" fill="#f4fff9" font-weight="400" align="middle" lineHeight="125%" anchor="middle" family="微软雅黑" size="16px" weight="400" font-style="" opacity="1" y="46" transform="rotate(0)"><tspan id="SvgjsTspan1163" dy="20" x="84"><tspan id="SvgjsTspan1164" style="text-decoration:;">拦截器2</tspan></tspan></text></g><g id="SvgjsG1165"><text id="SvgjsText1166" font-family="微软雅黑" text-anchor="middle" font-size="16px" width="168px" fill="#f4fff9" font-weight="400" align="middle" lineHeight="125%" anchor="middle" family="微软雅黑" size="16px" weight="400" font-style="" opacity="1" y="86" transform="rotate(0)"><tspan id="SvgjsTspan1167" dy="20" x="84"><tspan id="SvgjsTspan1168" style="text-decoration:;">postHandle</tspan></tspan></text></g><g id="SvgjsG1169"><text id="SvgjsText1170" font-family="微软雅黑" text-anchor="middle" font-size="16px" width="168px" fill="#f4fff9" font-weight="400" align="middle" lineHeight="125%" anchor="middle" family="微软雅黑" size="16px" weight="400" font-style="" opacity="1" y="126" transform="rotate(0)"><tspan id="SvgjsTspan1171" dy="20" x="84"><tspan id="SvgjsTspan1172" style="text-decoration:;">afterCompletion</tspan></tspan></text></g></g><g id="SvgjsG1173" transform="translate(632.921875,25)"><path id="SvgjsPath1174" d="M0 0L168 0L168 40 L0 40Z" stroke="rgba(102, 102, 102,1)" stroke-width="2" fill-opacity="1" fill="#65b584"></path><path id="SvgjsPath1175" d="M0 40L168 40L168 80 L0 80Z" stroke="rgba(102, 102, 102,1)" stroke-width="2" fill-opacity="1" fill="#65b584"></path><path id="SvgjsPath1176" d="M0 80L168 80L168 120 L0 120Z" stroke="rgba(102, 102, 102,1)" stroke-width="2" fill-opacity="1" fill="#65b584"></path><path id="SvgjsPath1177" d="M0 120L168 120L168 160 L0 160Z" stroke="rgba(102, 102, 102,1)" stroke-width="2" fill-opacity="1" fill="#65b584"></path><g id="SvgjsG1178"><text id="SvgjsText1179" font-family="微软雅黑" text-anchor="middle" font-size="16px" width="168px" fill="#f4fff9" font-weight="400" align="middle" lineHeight="125%" anchor="middle" family="微软雅黑" size="16px" weight="400" font-style="" opacity="1" y="6" transform="rotate(0)"><tspan id="SvgjsTspan1180" dy="20" x="84"><tspan id="SvgjsTspan1181" style="text-decoration:;">preHandle</tspan></tspan></text></g><g id="SvgjsG1182"><text id="SvgjsText1183" font-family="微软雅黑" text-anchor="middle" font-size="16px" width="168px" fill="#f4fff9" font-weight="400" align="middle" lineHeight="125%" anchor="middle" family="微软雅黑" size="16px" weight="400" font-style="" opacity="1" y="46" transform="rotate(0)"><tspan id="SvgjsTspan1184" dy="20" x="84"><tspan id="SvgjsTspan1185" style="text-decoration:;">拦截器3</tspan></tspan></text></g><g id="SvgjsG1186"><text id="SvgjsText1187" font-family="微软雅黑" text-anchor="middle" font-size="16px" width="168px" fill="#f4fff9" font-weight="400" align="middle" lineHeight="125%" anchor="middle" family="微软雅黑" size="16px" weight="400" font-style="" opacity="1" y="86" transform="rotate(0)"><tspan id="SvgjsTspan1188" dy="20" x="84"><tspan id="SvgjsTspan1189" style="text-decoration:;">postHandle</tspan></tspan></text></g><g id="SvgjsG1190"><text id="SvgjsText1191" font-family="微软雅黑" text-anchor="middle" font-size="16px" width="168px" fill="#f4fff9" font-weight="400" align="middle" lineHeight="125%" anchor="middle" family="微软雅黑" size="16px" weight="400" font-style="" opacity="1" y="126" transform="rotate(0)"><tspan id="SvgjsTspan1192" dy="20" x="84"><tspan id="SvgjsTspan1193" style="text-decoration:;">afterCompletion</tspan></tspan></text></g></g><g id="SvgjsG1194" transform="translate(864,40)"><path id="SvgjsPath1195" d="M 0 0L 84 0L 100 16L 100 100L 0 100L 0 0Z" stroke="rgba(18,119,49,1)" stroke-width="2" fill-opacity="1" fill="#fff7bc"></path><path id="SvgjsPath1196" d="M 84 0L 84 16L 100 16Z" stroke="rgba(18,119,49,1)" stroke-width="2" fill-opacity="1" fill="#e4d089"></path><path id="SvgjsPath1197" d="M 0 0L 84 0L 100 16L 100 100L 0 100L 0 0Z" stroke="rgba(18,119,49,1)" stroke-width="2" fill="none"></path><g id="SvgjsG1198"><text id="SvgjsText1199" font-family="微软雅黑" text-anchor="middle" font-size="16px" width="80px" fill="#000000" font-weight="400" align="middle" lineHeight="125%" anchor="middle" family="微软雅黑" size="16px" weight="400" font-style="" opacity="1" y="36" transform="rotate(0)"><tspan id="SvgjsTspan1200" dy="20" x="50"><tspan id="SvgjsTspan1201" style="text-decoration:;">目标方法</tspan></tspan></text></g></g><g id="SvgjsG1202" transform="translate(25,40)"><path id="SvgjsPath1203" d="M 0 0L 84 0L 100 16L 100 100L 0 100L 0 0Z" stroke="rgba(18,119,49,1)" stroke-width="2" fill-opacity="1" fill="#fff7bc"></path><path id="SvgjsPath1204" d="M 84 0L 84 16L 100 16Z" stroke="rgba(18,119,49,1)" stroke-width="2" fill-opacity="1" fill="#e4d089"></path><path id="SvgjsPath1205" d="M 0 0L 84 0L 100 16L 100 100L 0 100L 0 0Z" stroke="rgba(18,119,49,1)" stroke-width="2" fill="none"></path><g id="SvgjsG1206"><text id="SvgjsText1207" font-family="微软雅黑" text-anchor="middle" font-size="16px" width="80px" fill="#000000" font-weight="400" align="middle" lineHeight="125%" anchor="middle" family="微软雅黑" size="16px" weight="400" font-style="" opacity="1" y="36" transform="rotate(0)"><tspan id="SvgjsTspan1208" dy="20" x="50"><tspan id="SvgjsTspan1209" style="text-decoration:;">页面渲染</tspan></tspan></text></g></g><g id="SvgjsG1210"><path id="SvgjsPath1211" d="M363.921875 48C 383.321875 48 393.521875 48 410.321875 48" stroke="#81c2bb" stroke-width="2" fill="none" marker-end="url(#SvgjsMarker1212)"></path></g><g id="SvgjsG1214"><path id="SvgjsPath1215" d="M582.921875 49C 602.321875 49 612.521875 49 629.321875 49" stroke="#81c2bb" stroke-width="2" fill="none" marker-end="url(#SvgjsMarker1216)"></path></g><g id="SvgjsG1218"><path id="SvgjsPath1219" d="M801.8979145986002 49.21759297315026C 831.0146644446909 49 833.9072105553091 90 860.4862574450392 89.21666529665907" stroke="#81c2bb" stroke-width="2" fill="none" marker-end="url(#SvgjsMarker1220)"></path></g><g id="SvgjsG1222"><path id="SvgjsPath1223" d="M863.0208514763808 90.20314568342525C 834.9487353706849 90 829.9731396293151 126 804.4468096850292 125.26867553966906" stroke="#e74f4c" stroke-width="2" fill="none" marker-end="url(#SvgjsMarker1224)"></path></g><g id="SvgjsG1226"><path id="SvgjsPath1227" d="M631.921875 124C 612.521875 124 602.321875 124 585.521875 124" stroke="#e74f4c" stroke-width="2" fill="none" marker-end="url(#SvgjsMarker1228)"></path></g><g id="SvgjsG1230"><path id="SvgjsPath1231" d="M412.921875 129C 393.521875 129 383.321875 129 366.521875 129" stroke="#e74f4c" stroke-width="2" fill="none" marker-end="url(#SvgjsMarker1232)"></path></g><g id="SvgjsG1234"><path id="SvgjsPath1235" d="M193.93746749728115 126.82409699095587C 163.27869285024616 127 156.64318214975384 90 128.54386700978796 90.63325083255899" stroke="#e74f4c" stroke-width="2" fill="none" marker-end="url(#SvgjsMarker1236)"></path></g><g id="SvgjsG1238"><path id="SvgjsPath1239" d="M75.0588002026004 140.99826977124133C 75.00000000000006 430.56952864428604 1091.491403644286 166.99999999999994 804.5214201364724 167.0572259599976" stroke="#5b79e8" stroke-width="2" fill="none" marker-end="url(#SvgjsMarker1240)"></path></g><g id="SvgjsG1242"><path id="SvgjsPath1243" d="M631.921875 165C 611.721875 165 601.121875 165 583.521875 165" stroke="#5b79e8" stroke-width="2" fill="none" marker-end="url(#SvgjsMarker1244)"></path></g><g id="SvgjsG1246"><path id="SvgjsPath1247" d="M412.921875 166C 393.521875 166 383.321875 166 366.521875 166" stroke="#5b79e8" stroke-width="2" fill="none" marker-end="url(#SvgjsMarker1248)"></path></g></svg>